HIERARCHY
ROOT joint_Root
{
	OFFSET 0.0 0.0 0.0
	CHANNELS 6 Xposition Yposition Zposition Zrotation Xrotation Yrotation 
	JOINT Hips
	{
		OFFSET -17.1583 93.1646 452.98
		CHANNELS 6 Xposition Yposition Zposition Zrotation Xrotation Yrotation 
		JOINT Spine
		{
			OFFSET 15.7357 0.0 0.0
			CHANNELS 6 Xposition Yposition Zposition Zrotation Xrotation Yrotation 
			JOINT Chest
			{
				OFFSET 8.98455 -0.406207 0.0
				CHANNELS 6 Xposition Yposition Zposition Zrotation Xrotation Yrotation 
				JOINT Neck
				{
					OFFSET 16.3773 0.0 0.0
					CHANNELS 6 Xposition Yposition Zposition Zrotation Xrotation Yrotation 
					JOINT Head
					{
						OFFSET 6.45672 0.0 0.0
						CHANNELS 6 Xposition Yposition Zposition Zrotation Xrotation Yrotation 
						End Site
						{
							OFFSET 0.0 0.0 0.0
						}
					}
				}
				JOINT Shoulder_L
				{
					OFFSET 12.9942 -0.242716 4.98039
					CHANNELS 6 Xposition Yposition Zposition Zrotation Xrotation Yrotation 
					JOINT UpperArm_L
					{
						OFFSET 5.34809 0.0 0.0
						CHANNELS 6 Xposition Yposition Zposition Zrotation Xrotation Yrotation 
						JOINT LowerArm_L
						{
							OFFSET 24.3286 1.87007e-05 0.0
							CHANNELS 6 Xposition Yposition Zposition Zrotation Xrotation Yrotation 
							JOINT Hand_L
							{
								OFFSET 22.2916 0.0 0.0
								CHANNELS 6 Xposition Yposition Zposition Zrotation Xrotation Yrotation 
								End Site
								{
									OFFSET 0.0 0.0 0.0
								}
							}
						}
					}
				}
				JOINT Shoulder_R
				{
					OFFSET 12.9945 -0.242716 -4.98039
					CHANNELS 6 Xposition Yposition Zposition Zrotation Xrotation Yrotation 
					JOINT UpperArm_R
					{
						OFFSET -5.34813 0.0 0.0
						CHANNELS 6 Xposition Yposition Zposition Zrotation Xrotation Yrotation 
						JOINT LowerArm_R
						{
							OFFSET -24.3289 0.000322201 0.0
							CHANNELS 6 Xposition Yposition Zposition Zrotation Xrotation Yrotation 
							JOINT Hand_R
							{
								OFFSET -22.2915 -0.000108084 0.0
								CHANNELS 6 Xposition Yposition Zposition Zrotation Xrotation Yrotation 
								End Site
								{
									OFFSET 0.0 0.0 0.0
								}
							}
						}
					}
				}
			}
		}
		JOINT UpperLeg_L
		{
			OFFSET -2.19248 -6.46944 0.0
			CHANNELS 6 Xposition Yposition Zposition Zrotation Xrotation Yrotation 
			JOINT LowerLeg_L
			{
				OFFSET 39.0811 0.0 -1.23785e-05
				CHANNELS 6 Xposition Yposition Zposition Zrotation Xrotation Yrotation 
				JOINT Foot_L
				{
					OFFSET 40.9854 0.0 -1.26872e-05
					CHANNELS 6 Xposition Yposition Zposition Zrotation Xrotation Yrotation 
					JOINT Toes_L
					{
						OFFSET 11.7543 0.0 0.0
						CHANNELS 6 Xposition Yposition Zposition Zrotation Xrotation Yrotation 
						End Site
						{
							OFFSET 0.0 0.0 0.0
						}
					}
				}
			}
		}
		JOINT UpperLeg_R
		{
			OFFSET -2.19251 6.46944 0.0
			CHANNELS 6 Xposition Yposition Zposition Zrotation Xrotation Yrotation 
			JOINT LowerLeg_R
			{
				OFFSET -39.0811 -0.00228153 -0.0401928
				CHANNELS 6 Xposition Yposition Zposition Zrotation Xrotation Yrotation 
				JOINT Foot_R
				{
					OFFSET -40.9854 0.0 0.0
					CHANNELS 6 Xposition Yposition Zposition Zrotation Xrotation Yrotation 
					JOINT Toes_R
					{
						OFFSET -11.7543 0.0 0.0
						CHANNELS 6 Xposition Yposition Zposition Zrotation Xrotation Yrotation 
						End Site
						{
							OFFSET 0.0 0.0 0.0
						}
					}
				}
			}
		}
	}
}
MOTION
Frames:	4
Frame Time:	0.0333333
0.000000 0.000000 0.000000 0.000000 0.000000 -0.000000 -1.755460 87.388400 472.028000 -93.001600 -1.476780 162.494000 15.735700 0.000005 -0.000001 96.935900 82.252200 -95.814700 8.984550 -0.406207 -0.000000 7.601820 1.862240 2.116450 16.377300 -0.000001 -0.000001 -6.296930 0.287795 -0.200815 6.456720 -0.000001 -0.000000 -15.756000 0.240628 -4.805700 12.994200 -0.242716 4.980390 -92.112400 6.124850 -70.929300 5.348090 -0.000007 -0.000001 -42.075600 -22.419200 14.634400 24.328600 0.000019 0.000005 2.727060 27.086700 -5.974690 22.291600 -0.000001 0.000005 6.166430 4.708640 12.874700 12.994500 -0.242716 -4.980390 89.964200 0.109483 -71.921100 -5.348130 -0.000001 -0.000004 -53.649700 5.763850 -20.941700 -24.328900 0.000322 -0.000009 -9.660090 -4.104040 -67.148300 -22.291500 -0.000108 -0.000004 15.984600 5.511150 -7.023640 -2.192480 -6.469440 -0.000000 176.612000 1.159670 -48.375100 39.081100 -0.000007 -0.000012 -0.063648 0.004485 85.976400 40.985400 -0.000006 -0.000013 -2.240160 -1.347050 -58.658300 11.754300 -0.000000 0.000003 0.001889 0.042693 -14.845000 -2.192510 6.469440 -0.000001 175.964000 10.328900 173.724000 -39.081100 -0.002282 -0.040193 -0.004705 0.012711 32.191200 -40.985400 0.000008 0.000006 -7.137410 3.333790 -71.938800 -11.754300 -0.000006 -0.000006 -0.037443 -0.249752 -26.825300
0.000000 0.000000 0.000000 0.000000 0.000000 -0.000000 -2.657610 89.825800 464.848000 -96.005800 -0.475970 159.676000 15.735700 0.000005 -0.000001 102.866000 83.456100 -103.196000 8.984550 -0.406207 -0.000000 5.006840 2.916390 -0.785580 16.377300 -0.000001 -0.000001 -5.254730 -0.381901 -0.098364 6.456720 -0.000001 -0.000000 -14.322300 -1.735960 -3.813340 12.994200 -0.242716 4.980390 -91.622900 4.644900 -70.715800 5.348090 -0.000007 -0.000001 -38.967400 -23.597100 17.317700 24.328600 0.000019 0.000005 3.050130 23.364800 -7.652920 22.291600 -0.000001 0.000005 20.622200 4.563290 15.472800 12.994500 -0.242716 -4.980390 90.246100 -0.759795 -72.050400 -5.348130 -0.000001 -0.000004 -56.227700 3.711760 -19.042800 -24.328900 0.000322 -0.000009 -17.099400 -5.469770 -72.775700 -22.291500 -0.000108 -0.000004 13.545000 5.591740 -10.905000 -2.192480 -6.469440 -0.000000 173.113000 2.043220 -53.334500 39.081100 -0.000007 -0.000012 -0.055694 0.014475 75.437300 40.985400 -0.000006 -0.000013 -3.159310 -0.964095 -64.395200 11.754300 -0.000000 0.000003 0.002176 0.054146 -14.380500 -2.192510 6.469440 -0.000001 172.913000 11.187300 177.342000 -39.081100 -0.002282 -0.040193 0.015184 -0.027916 23.033100 -40.985400 0.000008 0.000006 -2.234160 0.500914 -55.905800 -11.754300 -0.000006 -0.000006 -0.087220 -0.411673 -33.697000
0.000000 0.000000 0.000000 0.000000 0.000000 -0.000000 -3.157370 91.624300 457.465000 -96.419900 -0.391806 158.488000 15.735700 0.000005 -0.000001 109.051000 83.962900 -109.754000 8.984550 -0.406207 -0.000000 3.678810 3.961100 -1.530830 16.377300 -0.000001 -0.000001 -4.266270 -0.916745 -0.083406 6.456720 -0.000001 -0.000000 -14.518000 -3.092550 -3.664980 12.994200 -0.242716 4.980390 -91.542200 4.304540 -70.267800 5.348090 -0.000007 -0.000001 -36.993100 -24.132800 17.643200 24.328600 0.000019 0.000005 2.961460 24.116100 -7.217010 22.291600 -0.000001 0.000005 34.247900 4.464210 17.151900 12.994500 -0.242716 -4.980390 90.279800 -0.869917 -72.167600 -5.348130 -0.000001 -0.000004 -58.576400 1.916160 -17.301200 -24.328900 0.000322 -0.000009 -19.125000 -4.967690 -75.977600 -22.291500 -0.000108 -0.000004 11.890300 5.608430 -11.859700 -2.192480 -6.469440 -0.000000 173.303000 2.609090 -53.956600 39.081100 -0.000007 -0.000012 -0.032999 0.018203 61.124900 40.985400 -0.000006 -0.000013 -4.646650 3.923500 -68.369700 11.754300 -0.000000 0.000003 0.002243 0.057541 -14.242900 -2.192510 6.469440 -0.000001 172.782000 10.345200 -179.111000 -39.081100 -0.002282 -0.040193 0.020427 -0.058251 16.358600 -40.985400 0.000008 0.000006 1.803220 -1.526680 -39.042000 -11.754300 -0.000006 -0.000006 -0.052690 -0.307227 -29.236200
0.000000 0.000000 0.000000 0.000000 0.000000 -0.000000 -3.221000 92.213300 449.588000 -94.565500 -1.126690 160.489000 15.735700 0.000005 -0.000001 110.551000 83.374500 -110.634000 8.984550 -0.406207 -0.000000 4.657270 4.645530 -0.354365 16.377300 -0.000001 -0.000001 -3.960330 -1.069200 -0.156763 6.456720 -0.000001 -0.000000 -15.372100 -3.801080 -4.023180 12.994200 -0.242716 4.980390 -91.844200 5.128030 -70.188700 5.348090 -0.000007 -0.000001 -36.195900 -23.011100 15.823700 24.328600 0.000019 0.000005 1.224960 23.862500 -3.022640 22.291600 -0.000001 0.000005 41.612000 4.315270 19.547500 12.994500 -0.242716 -4.980390 90.083000 -0.261558 -72.399600 -5.348130 -0.000001 -0.000004 -60.421300 0.978172 -15.788300 -24.328900 0.000322 -0.000009 -18.377200 -4.604500 -76.413000 -22.291500 -0.000108 -0.000004 11.550800 5.623370 -12.862700 -2.192480 -6.469440 -0.000000 176.285000 2.222330 -49.210100 39.081100 -0.000007 -0.000012 -0.034767 0.034093 45.563600 40.985400 -0.000006 -0.000013 -6.980930 10.098700 -73.005200 11.754300 -0.000000 0.000003 0.002416 0.069650 -13.751900 -2.192510 6.469440 -0.000001 175.391000 6.564010 -175.312000 -39.081100 -0.002282 -0.040193 0.020910 -0.060219 16.275800 -40.985400 0.000008 0.000006 2.526500 -2.343250 -26.529100 -11.754300 -0.000006 -0.000006 0.002003 0.120891 -11.670900
